HIERARCHY
ROOT ui
{
	 OFFSET 0 0 0
	 CHANNELS 3 XPosition YPosition Z Position
	 EndSite
	 {
	 OFFSET 0 -1 0
	 }
}
ROOT li
{
	 OFFSET 0 0 0
	 CHANNELS 3 XPosition YPosition Z Position
	 EndSite
	 {
	 OFFSET 0 -1 0
	 }
}
ROOT ul
{
	 OFFSET 0 0 0
	 CHANNELS 3 XPosition YPosition Z Position
	 EndSite
	 {
	 OFFSET 0 -1 0
	 }
}
ROOT ll
{
	 OFFSET 0 0 0
	 CHANNELS 3 XPosition YPosition Z Position
	 EndSite
	 {
	 OFFSET 0 -1 0
	 }
}
ROOT tt
{
	 OFFSET 0 0 0
	 CHANNELS 3 XPosition YPosition Z Position
	 EndSite
	 {
	 OFFSET 0 -1 0
	 }
}
ROOT tb
{
	 OFFSET 0 0 0
	 CHANNELS 3 XPosition YPosition Z Position
	 EndSite
	 {
	 OFFSET 0 -1 0
	 }
}
ROOT td
{
	 OFFSET 0 0 0
	 CHANNELS 3 XPosition YPosition Z Position
	 EndSite
	 {
	 OFFSET 0 -1 0
	 }
}
ROOT v
{
	 OFFSET 0 0 0
	 CHANNELS 3 XPosition YPosition Z Position
	 EndSite
	 {
	 OFFSET 0 -1 0
	 }
}
ROOT bn
{
	 OFFSET 0 0 0
	 CHANNELS 3 XPosition YPosition Z Position
	 EndSite
	 {
	 OFFSET 0 -1 0
	 }
}
MOTION
Frames: 16
Frame Time: 0.002
0.08066683959960938	0.0024273951053619385	0		0.6394737548828126	-2.765475830078125	0		-0.9446736450195312	-0.061313034057617184	0		-0.42736944580078123	-3.12200732421875	0		2.251044189453125	-1.8787322998046876	0		3.798113037109375	-1.089658935546875	0		4.9404150390625	-0.5984849243164062	0		5.89955029296875	0.3545788269042969	0		-0.29625338745117186	5.8664384765625	0		
-0.01148908519744873	9.878039956092834E-4	0		0.6523477172851563	-2.76345166015625	0		-0.9649122924804687	-0.07912551116943359	0		-0.33639773559570313	-3.10138720703125	0		2.25790966796875	-1.8776710205078124	0		3.7709091796875	-1.101417236328125	0		4.9392490234375	-0.6023729248046875	0		5.89436083984375	0.34671591186523437	0		-0.31147412109375	5.8566025390625	0		
0.015386984825134278	9.334520101547242E-4	0		0.625247802734375	-2.761226318359375	0		-0.9621226196289062	-0.09606123352050781	0		-0.41129052734375	-3.05892138671875	0		2.276697509765625	-1.89667333984375	0		3.794826416015625	-1.0944383544921874	0		4.94114306640625	-0.5992767333984375	0		5.89423583984375	0.34682781982421873	0		-0.31162542724609377	5.85668505859375	0		
-0.018750829696655272	-0.004814752101898193	0		0.6251557006835937	-2.761145263671875	0		-0.9723267211914063	-0.1149375228881836	0		-0.40825308227539064	-3.033861572265625	0		2.267626220703125	-1.8915369873046874	0		3.794724853515625	-1.0943394775390625	0		4.9460791015625	-0.5911982421875	0		5.89008544921875	0.3389590759277344	0		-0.31176577758789065	5.85676123046875	0		
0.013123384475708008	-0.009908543586730958	0		0.5751256103515625	-2.75081591796875	0		-0.9704667358398438	-0.12288420104980469	0		-0.4441027526855469	-2.988611083984375	0		2.27651318359375	-1.896498291015625	0		3.799744384765625	-1.072270751953125	0		4.94598193359375	-0.5910974731445312	0		5.89402392578125	0.34704669189453125	0		-0.3109140319824219	5.85482373046875	0		
-0.017853706359863282	0.014310452461242676	0		0.6220865478515625	-2.742990478515625	0		-0.9745810546875	-0.12581002807617186	0		-0.44799142456054686	-2.951533447265625	0		2.258437744140625	-1.894328369140625	0		3.786591552734375	-1.0841146240234374	0		4.97089501953125	-0.5891282348632813	0		5.889880859375	0.3391726989746094	0		-0.29700225830078125	5.86581103515625	0		
0.010956887245178223	-0.0017853699922561646	0		0.5950184326171875	-2.7397958984375	0		-0.9747943725585938	-0.14676634216308593	0		-0.452889892578125	-2.91546044921875	0		2.305361328125	-1.891496337890625	0		3.81062060546875	-1.059152587890625	0		4.96483740234375	-0.5800047607421875	0		5.89381103515625	0.34725494384765626	0		-0.2771860961914063	5.86075830078125	0		
-0.01516408634185791	-0.001611441969871521	0		0.6389384155273438	-2.73697216796875	0		-0.9869649658203125	-0.15667303466796875	0		-0.4587998046875	-2.879393310546875	0		2.295283935546875	-1.886381591796875	0		3.7894638671875	-1.067967041015625	0		4.96168994140625	-0.5859014892578125	0		5.8896455078125	0.33937429809570313	0		-0.3113944091796875	5.85497021484375	0		
-0.02927392578125	0.004489264965057373	0		0.5868682861328125	-2.728671630859375	0		-0.9821900634765625	-0.1736787414550781	0		-0.4497575988769531	-2.849414306640625	0		2.303122802734375	-1.8943677978515625	0		3.7793603515625	-1.06284619140625	0		4.96458447265625	-0.5798363037109375	0		5.88141064453125	0.321507568359375	0		-0.3106021728515625	5.85399169921875	0		
-0.014506808280944824	-0.009570237159729003	0		0.6287064208984375	-2.734861083984375	0		-0.970400634765625	-0.18373388671875	0		-0.4726995849609375	-2.812286865234375	0		2.275058837890625	-1.87918359375	0		3.801154541015625	-1.073898193359375	0		4.95847314453125	-0.570735595703125	0		5.8812451171875	0.32159063720703124	0		-0.342875244140625	5.8451669921875	0		
-0.004637034893035888	3.8087499141693115E-4	0		0.5996644897460938	-2.71370556640625	0		-0.9786144409179688	-0.19070297241210937	0		-0.46962484741210936	-2.76830615234375	0		2.310884765625	-1.8823365478515626	0		3.806193603515625	-1.0328770751953125	0		4.953337890625	-0.5626522216796875	0		5.881060546875	0.32166213989257814	0		-0.30909024047851563	5.8519931640625	0		
0.004219593048095703	0.010321734428405761	0		0.6415089111328125	-2.71292333984375	0		-0.9908558959960938	-0.20066810607910157	0		-0.47360284423828125	-2.732305908203125	0		2.31071435546875	-1.882321533203125	0		3.781942626953125	-1.0467225341796875	0		4.97211865234375	-0.5687026977539062	0		5.86782275390625	0.31378683471679686	0		-0.309356201171875	5.8519755859375	0		
-0.012064555168151855	-0.006627659797668457	0		0.6143556518554687	-2.710809326171875	0		-0.995067138671875	-0.20369085693359376	0		-0.4636106567382812	-2.701392822265625	0		2.303580322265625	-1.87428662109375	0		3.797842529296875	-1.0297841796875	0		4.9619404296875	-0.5656207275390625	0		5.8676201171875	0.3138327331542969	0		-0.2906561279296875	5.84684619140625	0		
0.01172468090057373	-0.009795741081237793	0		0.6162118530273437	-2.70785888671875	0		-0.9743804321289062	-0.22785694885253907	0		-0.5245884399414062	-2.6651416015625	0		2.30341015625	-1.87430322265625	0		3.805605712890625	-1.0408204345703125	0		4.9617509765625	-0.56560400390625	0		5.867419921875	0.31386447143554685	0		-0.3249553833007813	5.84196484375	0		
6.263070106506348E-4	0.007193149089813233	0		0.594111572265625	-2.698806396484375	0		-0.9685858764648437	-0.2329665985107422	0		-0.4666253356933594	-2.643505126953125	0		2.305267822265625	-1.8713468017578125	0		3.785576904296875	-1.0127333984375	0		4.9686279296875	-0.55463818359375	0		5.87127197265625	0.32186083984375	0		-0.3101763610839844	5.8508193359375	0		
0.013432443618774414	0.0010440750122070312	0		0.5880518188476562	-2.685852294921875	0		-0.964726318359375	-0.2290850067138672	0		-0.5315904541015625	-2.611272705078125	0		2.311176025390625	-1.862427734375	0		3.7983330078125	-1.031827392578125	0		4.96351513671875	-0.5456286010742187	0		5.871103515625	0.32186163330078127	0		-0.309429931640625	5.8497255859375	0		
